<?xml version="1.0" encoding="utf-8" standalone="yes"?>
<!DOCTYPE svg PUBLIC "-//W3C//DTD SVG 1.1//EN" "http://www.w3.org/Graphics/SVG/1.1/DTD/svg11.dtd">
<svg xmlns="http://www.w3.org/2000/svg" xmlns:xlink="http://www.w3.org/1999/xlink" xmlns:dc="http://purl.org/dc/elements/1.1/" xmlns:cc="http://web.resource.org/cc/" xmlns:rdf="http://www.w3.org/1999/02/22-rdf-syntax-ns#" xmlns:sodipodi="http://sodipodi.sourceforge.net/DTD/sodipodi-0.dtd" xmlns:inkscape="http://www.inkscape.org/namespaces/inkscape" version="1.1" baseProfile="full" width="480px" height="360px" viewBox="0 0 480 360" preserveAspectRatio="xMidYMid meet" id="svg_document" style="zoom: 1;"><!-- Created with macSVG - https://macsvg.org/ - https://github.com/dsward2/macsvg/ --><title id="svg_document_title">Untitled.svg</title><defs id="svg_document_defs"></defs><g id="main_group"><rect x="100pc" height="69.903pc" y="100pc" id="background_rect" width="100pc" fill="#90ee90"></rect><rect stroke="#000000" x="35px" height="261px" y="78px" id="rect1" stroke-width="3px" width="379px" fill="#ffffff" transform=""></rect><polygon points="110,123 85,146" stroke="#000000" id="polygon1" stroke-width="3px" fill="#ffffff" transform=""></polygon></g><line stroke="#000000" y1="121px" id="line1" x1="364px" d="" stroke-width="3px" y2="123px" x2="109px" transform=""></line><polyline points="86,140 81,188 121,205 168,208 349,205 360,215 363,230 359,237 345,253 329,265 308,276 289,287 257,282 246,275 234,291 236,306 236,306 236,320 221,329 221,329 221,329 200,325 185,314 185,314 185,297 185,297 185,297 185,297 185,282 185,282 185,282 188,230 208,214 187,193 187,193 189,186 189,186 189,186 189,185 236,161 360,156 376,152 376,152 377,138 370,124 361,122" stroke="#000000" id="polyline1" stroke-width="3px" fill="none" transform=""></polyline></svg>
